<?xml version="1.0" encoding="utf-8"?>
<!-- Generator: Adobe Illustrator 23.0.1, SVG Export Plug-In . SVG Version: 6.00 Build 0)  -->
<svg version="1.1" id="Layer_1" xmlns="http://www.w3.org/2000/svg" xmlns:xlink="http://www.w3.org/1999/xlink" x="0px" y="0px"
	 viewBox="0 0 25 25" style="enable-background:new 0 0 25 25;" xml:space="preserve">
<style type="text/css">
	.st0{fill:url(#SVGID_1_);}
	.st1{fill-rule:evenodd;clip-rule:evenodd;fill:#FFFFFF;}
</style>
<linearGradient id="SVGID_1_" gradientUnits="userSpaceOnUse" x1="12.5" y1="0" x2="12.5" y2="25">
	<stop  offset="0" style="stop-color:#5A5366"/>
	<stop  offset="1" style="stop-color:#6F7684"/>
</linearGradient>
<circle class="st0" cx="12.5" cy="12.5" r="12.5"/>
<path class="st1" d="M11.7,18.3c0.3,0,0.6,0.1,0.9,0.1c3.2,0,5.7-2.6,5.7-5.7c0-3.2-2.6-5.7-5.7-5.7c-0.2,0-0.4,0-0.6,0
	c1.6,1.2,2.6,3.2,2.6,5.6S13.4,17.1,11.7,18.3z M12.5,20c4.1,0,7.5-3.4,7.5-7.5S16.6,5,12.5,5S5,8.4,5,12.5S8.3,20,12.5,20z"/>
</svg>
