<?xml version="1.0" encoding="utf-8"?>
<!-- Generator: Adobe Illustrator 26.0.2, SVG Export Plug-In . SVG Version: 6.00 Build 0)  -->
<svg version="1.1" id="Layer_1" xmlns="http://www.w3.org/2000/svg" xmlns:xlink="http://www.w3.org/1999/xlink" x="0px" y="0px"
	 viewBox="0 0 25 25" style="enable-background:new 0 0 25 25;" xml:space="preserve">
<style type="text/css">
	.st0{fill:url(#SVGID_1_);}
	.st1{fill-rule:evenodd;clip-rule:evenodd;fill:#FFFFFF;}
</style>
<linearGradient id="SVGID_1_" gradientUnits="userSpaceOnUse" x1="12.5" y1="26" x2="12.5" y2="1" gradientTransform="matrix(1 0 0 -1 0 26)">
	<stop  offset="0" style="stop-color:#176CC5"/>
	<stop  offset="1" style="stop-color:#176CC5"/>
</linearGradient>
<circle class="st0" cx="12.5" cy="12.5" r="12.5"/>
<path class="st1" d="M13.2,12.5c0.1-0.1,0.2-0.2,0.3-0.3c0.9,0.4,1.6,1.3,1.6,2.3c0,1.4-1.1,2.5-2.5,2.5c-0.6,0-1.1-0.2-1.5-0.5
	c-0.1-0.1-0.3-0.1-0.3-0.2c-0.1-0.1-0.2-0.1-0.3-0.1c-0.2,0-0.1,0.2-0.1,0.3c0,0.1,0.1,0.2,0,0.2c0,0-0.2-0.1-0.4-0.3
	c-0.2-0.2-0.5-0.5-0.7-0.4c-0.1,0.1,0,0.2,0.1,0.5l0,0c0.1,0.1,0.1,0.2,0.2,0.3c0,0.1,0.1,0.2,0.1,0.2c-0.1,0-0.5-0.2-0.8-0.6
	c-0.1-0.1-0.3-0.3-0.4-0.4l0,0c-0.3-0.3-0.5-0.6-0.6-0.6s0,0.3,0.1,0.6c0.1,0.1,0.2,0.3,0.2,0.4l0,0c0.1,0.2,0.2,0.3,0.2,0.3
	S8,16.3,7.7,15.9c-0.2-0.3-0.3-0.6-0.4-0.8c-0.1-0.3-0.2-0.5-0.3-0.5c-0.2-0.1-0.2,0.3-0.1,0.9c0,0.1,0,0.2,0,0.2
	C7.7,18.2,10,20,12.8,20c3.4,0,6.1-2.7,6.1-6c0-3.2-2.5-5.7-5.6-6c0-0.1,0.1-0.4,0.1-0.4S14,6.3,14,6c0,0,0,0,0-0.1
	C14,5.6,14.1,5,13.6,5c-0.3,0-0.4,0.2-0.5,0.4l0,0c0,0.1-0.1,0.2-0.1,0.3c-0.5,0.6-1.3,1.4-1.8,1.8c-1,0.9-2,1.6-2.5,2l0,0l0,0
	C8.4,9.7,8.2,9.8,8.2,9.9c-0.4,0.4-1.9,3-1.9,3s-0.5,0.8-0.3,1C6.1,14.1,6.6,14,6.6,14s5.4-1.2,5.9-1.3c0.1,0,0.2,0,0.3-0.1
	C13,12.6,13,12.6,13.2,12.5z M9.4,10.9c-0.3,0.3-0.8,0.9-0.8,0.9s0.9,0.1,1.4-0.4s0.4-1.3,0.4-1.3S9.7,10.6,9.4,10.9z"/>
</svg>
