<?xml version="1.0" encoding="utf-8"?>
<!-- Generator: Adobe Illustrator 23.0.1, SVG Export Plug-In . SVG Version: 6.00 Build 0)  -->
<svg version="1.1" id="Layer_1" xmlns="http://www.w3.org/2000/svg" xmlns:xlink="http://www.w3.org/1999/xlink" x="0px" y="0px"
	 viewBox="0 0 25 25" style="enable-background:new 0 0 25 25;" xml:space="preserve">
<style type="text/css">
	.st0{fill:url(#SVGID_1_);}
	.st1{fill-rule:evenodd;clip-rule:evenodd;fill:#FFFFFF;}
</style>
<linearGradient id="SVGID_1_" gradientUnits="userSpaceOnUse" x1="12.5" y1="0" x2="12.5" y2="25">
	<stop  offset="0" style="stop-color:#F4D23C"/>
	<stop  offset="1" style="stop-color:#F9E171"/>
</linearGradient>
<circle class="st0" cx="12.5" cy="12.5" r="12.5"/>
<path class="st1" d="M9.5,5C9.5,5,9.5,5,9.5,5l5.3,0c0,0,0,0,0,0l2.4,7.8c0,0,0,0,0,0h-3.5c0,0,0,0,0,0l2,7.1c0,0,0,0,0,0L7.8,9.6
	c0,0,0,0,0,0H11c0,0,0,0,0,0L9.5,5z"/>
</svg>
