<?xml version="1.0" encoding="utf-8"?>
<!-- Generator: Adobe Illustrator 23.0.1, SVG Export Plug-In . SVG Version: 6.00 Build 0)  -->
<svg version="1.1" id="Layer_1" xmlns="http://www.w3.org/2000/svg" xmlns:xlink="http://www.w3.org/1999/xlink" x="0px" y="0px"
	 viewBox="0 0 25 25" style="enable-background:new 0 0 25 25;" xml:space="preserve">
<style type="text/css">
	.st0{fill:url(#SVGID_1_);}
	.st1{fill-rule:evenodd;clip-rule:evenodd;fill:#FFFFFF;}
</style>
<linearGradient id="SVGID_1_" gradientUnits="userSpaceOnUse" x1="12.5" y1="25" x2="12.5" y2="0" gradientTransform="matrix(1 0 0 -1 0 25)">
	<stop  offset="0" style="stop-color:#ED8CE5"/>
	<stop  offset="1" style="stop-color:#F4A8E5"/>
</linearGradient>
<circle class="st0" cx="12.5" cy="12.5" r="12.5"/>
<path class="st1" d="M8,16.9l2.4-0.7l2.1,3.8l0,0l2.1-3.8l2.4,0.7l0,0l-0.7-2.4l3.7-2l0,0l-3.7-2L17,8l0,0l-2.5,0.7l-2-3.7l0,0
	l-2,3.7L8,8l0,0l0.7,2.5l-3.7,2l0,0l3.7,2L8,16.9L8,16.9z M9.9,12.5l1.7,0.9l0.9,1.7l0,0l0.9-1.7l1.7-0.9l0,0l-1.7-0.9l-0.9-1.7l0,0
	l-0.9,1.7L9.9,12.5L9.9,12.5z"/>
</svg>
