<?xml version="1.0" encoding="utf-8"?>
<!-- Generator: Adobe Illustrator 23.0.1, SVG Export Plug-In . SVG Version: 6.00 Build 0)  -->
<svg version="1.1" id="Layer_1" xmlns="http://www.w3.org/2000/svg" xmlns:xlink="http://www.w3.org/1999/xlink" x="0px" y="0px"
	 viewBox="0 0 25 25" style="enable-background:new 0 0 25 25;" xml:space="preserve">
<style type="text/css">
	.st0{fill:url(#SVGID_1_);}
	.st1{fill-rule:evenodd;clip-rule:evenodd;fill:#FFFFFF;}
</style>
<linearGradient id="SVGID_1_" gradientUnits="userSpaceOnUse" x1="12.5" y1="25" x2="12.5" y2="0" gradientTransform="matrix(1 0 0 -1 0 25)">
	<stop  offset="0" style="stop-color:#CE406A"/>
	<stop  offset="1" style="stop-color:#E3454E"/>
</linearGradient>
<circle class="st0" cx="12.5" cy="12.5" r="12.5"/>
<path class="st1" d="M7.6,6.1c0.2-0.7,0.8-1.2,1.6-1.2c0.6,0,1.1,0.3,1.4,0.8h0.5c0.3-0.3,0.7-0.5,1.2-0.5c0.7,0,1.3,0.4,1.5,1h0.4
	C14.4,6,14.7,5.9,15,5.9c0.7,0,1.3,0.4,1.5,1h1.1l0,0c0.1,0,0.1,0,0.2,0c0.9,0,1.7,0.7,1.7,1.7v5l0,0l0,0v0.1v0.1
	c-0.1,3.4-3.2,6.2-7,6.2c-3.9,0-7-2.9-7-6.4c0-1.7,0.7-3.2,1.9-4.4c0,1.7,0,3.4,0.2,3.3C7.9,12.4,7.7,7.3,7.6,6.1z"/>
</svg>
