<?xml version="1.0" encoding="utf-8"?>
<!-- Generator: Adobe Illustrator 23.0.1, SVG Export Plug-In . SVG Version: 6.00 Build 0)  -->
<svg version="1.1" id="Layer_1" xmlns="http://www.w3.org/2000/svg" xmlns:xlink="http://www.w3.org/1999/xlink" x="0px" y="0px"
	 viewBox="0 0 25 25" style="enable-background:new 0 0 25 25;" xml:space="preserve">
<style type="text/css">
	.st0{fill:url(#SVGID_1_);}
	.st1{fill-rule:evenodd;clip-rule:evenodd;fill:#FFFFFF;}
</style>
<linearGradient id="SVGID_1_" gradientUnits="userSpaceOnUse" x1="12.5" y1="0" x2="12.5" y2="25">
	<stop  offset="0" style="stop-color:#FF9C54"/>
	<stop  offset="1" style="stop-color:#FFAE4B"/>
</linearGradient>
<circle class="st0" cx="12.5" cy="12.5" r="12.5"/>
<path class="st1" d="M15.3,16.6c0.2-0.7-0.2-2.1-0.2-2.1s-0.3,1.1-0.7,1.6c-0.3,0.4-0.8,0.6-1.4,0.7c0.5-0.2,0.8-0.7,0.8-1.3
	c0-0.8-0.7-1.5-1.5-1.5c-0.8,0-1.5,0.7-1.5,1.5c0,0.2,0.1,0.4,0.1,0.6c-0.5-0.4-0.6-1.1-0.6-1.1s-0.6,2.4,1,3.6
	c1.6,1.1,4.8,0.2,4.8,0.2s-4.5,3.2-7.8-0.3c-2.9-3-0.8-6.9-0.8-6.9s-0.1,0.4-0.1,0.8c0,0.4,0.2,0.7,0.2,0.7s0.7-1.4,1.2-2
	c0.5-0.6,1.1-1,1.7-1.4c0.4-0.3,0.8-0.6,1-0.8C12.9,7.5,12.1,5,12.1,5s1.4,1.2,1.7,2.8c0.1,0.6,0.1,1.3,0,1.9
	c-0.1,1-0.2,1.8,0.7,1.7c1.6-0.1,0.2-2.5,0.2-2.5s3.6,1.9,3.3,5.2c-0.3,3.3-3.9,4-3.9,4S15.1,17.3,15.3,16.6z"/>
</svg>
