<?xml version="1.0" encoding="utf-8"?>
<!-- Generator: Adobe Illustrator 23.0.1, SVG Export Plug-In . SVG Version: 6.00 Build 0)  -->
<svg version="1.1" id="Layer_1" xmlns="http://www.w3.org/2000/svg" xmlns:xlink="http://www.w3.org/1999/xlink" x="0px" y="0px"
	 viewBox="0 0 25 25" style="enable-background:new 0 0 25 25;" xml:space="preserve">
<style type="text/css">
	.st0{fill:url(#SVGID_1_);}
	.st1{fill-rule:evenodd;clip-rule:evenodd;fill:#FFFFFF;}
</style>
<linearGradient id="SVGID_1_" gradientUnits="userSpaceOnUse" x1="12.5" y1="0" x2="12.5" y2="25">
	<stop  offset="0" style="stop-color:#5369AC"/>
	<stop  offset="1" style="stop-color:#7A74D7"/>
</linearGradient>
<circle class="st0" cx="12.5" cy="12.5" r="12.5"/>
<path class="st1" d="M15.8,19.9c-1.4,0.1-2.9,0.1-3.4,0C8.3,19.4,5,16.4,5,12.3S8.4,5,12.5,5S20,8.3,20,12.3c0,1.9-0.7,3.6-1.9,4.9
	c-0.3,0.4,0.1,0.6,0.6,0.9c0.4,0.2,0.9,0.5,0.6,0.9C19,19.4,17.4,19.9,15.8,19.9z M11.4,11.4c0,0.6-0.5,1.1-1.2,1.1
	s-1.2-0.5-1.2-1.1c0-0.4,0.2-0.8,0.6-1c0,0.6,0.5,1,1,1L11.4,11.4L11.4,11.4z M15.1,10.4c0,0.6-0.5,1-1,1h-0.7v0
	c0,0.6,0.5,1.1,1.2,1.1s1.2-0.5,1.2-1.1C15.7,11,15.4,10.6,15.1,10.4z"/>
</svg>
