<?xml version="1.0" encoding="utf-8"?>
<!-- Generator: Adobe Illustrator 23.0.1, SVG Export Plug-In . SVG Version: 6.00 Build 0)  -->
<svg version="1.1" id="Layer_1" xmlns="http://www.w3.org/2000/svg" xmlns:xlink="http://www.w3.org/1999/xlink" x="0px" y="0px"
	 viewBox="0 0 25 25" style="enable-background:new 0 0 25 25;" xml:space="preserve">
<style type="text/css">
	.st0{fill:url(#SVGID_1_);}
	.st1{fill-rule:evenodd;clip-rule:evenodd;fill:#FFFFFF;}
</style>
<linearGradient id="SVGID_1_" gradientUnits="userSpaceOnUse" x1="12.5" y1="25" x2="12.5" y2="0" gradientTransform="matrix(1 0 0 -1 0 25)">
	<stop  offset="0" style="stop-color:#C7B68B"/>
	<stop  offset="1" style="stop-color:#D5CA91"/>
</linearGradient>
<circle class="st0" cx="12.5" cy="12.5" r="12.5"/>
<path class="st1" d="M16.6,12.2C16.6,12.2,16.6,12.2,16.6,12.2l1-5.6c0,0,0,0,0,0h0.3c0,0,0,0,0,0l2.2,6.8c0,0,0,0,0,0l-1.6,1.2
	c0,0,0,0,0,0L16.6,12.2z M5,15.9C5,15.9,5,15.9,5,15.9l3.3,1.1c0,0,0,0,0,0l7.3-5c0,0,0,0,0,0l0.8-5.3c0,0,0,0,0,0H9.9c0,0,0,0,0,0
	L5,12.5c0,0,0,0,0,0V15.9z M9.6,17.2l3.6,1.2c0,0,0,0,0,0l4.3-3.1c0,0,0,0,0,0L15.9,13c0,0,0,0,0,0L9.6,17.2z"/>
</svg>
