<?xml version="1.0" encoding="utf-8"?>
<!-- Generator: Adobe Illustrator 23.0.1, SVG Export Plug-In . SVG Version: 6.00 Build 0)  -->
<svg version="1.1" id="Layer_1" xmlns="http://www.w3.org/2000/svg" xmlns:xlink="http://www.w3.org/1999/xlink" x="0px" y="0px"
	 viewBox="0 0 25 25" style="enable-background:new 0 0 25 25;" xml:space="preserve">
<style type="text/css">
	.st0{fill:url(#SVGID_1_);}
	.st1{fill-rule:evenodd;clip-rule:evenodd;fill:#FFFFFF;}
</style>
<linearGradient id="SVGID_1_" gradientUnits="userSpaceOnUse" x1="12.5" y1="25" x2="12.5" y2="0" gradientTransform="matrix(1 0 0 -1 0 25)">
	<stop  offset="0" style="stop-color:#4E90D6"/>
	<stop  offset="1" style="stop-color:#72C4E4"/>
</linearGradient>
<circle class="st0" cx="12.5" cy="12.5" r="12.5"/>
<path class="st1" d="M17.4,15.2c0,2.7-2.2,4.8-4.9,4.8s-4.9-2.2-4.9-4.8c0-2.6,4.6-9.8,4.9-10.1c0,0,0,0,0,0
	C12.8,5.4,17.4,12.5,17.4,15.2z M11.7,18.4c-2.5-0.5-2-3.3-2-3.3s0.7,1.7,2.3,2.2c1.6,0.5,3.6-0.2,3.6-0.2S14.2,19,11.7,18.4z"/>
</svg>
