<?xml version="1.0" encoding="utf-8"?>
<!-- Generator: Adobe Illustrator 23.0.1, SVG Export Plug-In . SVG Version: 6.00 Build 0)  -->
<svg version="1.1" id="Layer_1" xmlns="http://www.w3.org/2000/svg" xmlns:xlink="http://www.w3.org/1999/xlink" x="0px" y="0px"
	 viewBox="0 0 25 25" style="enable-background:new 0 0 25 25;" xml:space="preserve">
<style type="text/css">
	.st0{fill:url(#SVGID_1_);}
	.st1{fill-rule:evenodd;clip-rule:evenodd;fill:#FFFFFF;}
</style>
<linearGradient id="SVGID_1_" gradientUnits="userSpaceOnUse" x1="12.5" y1="0" x2="12.5" y2="25">
	<stop  offset="0" style="stop-color:#8FC23F"/>
	<stop  offset="1" style="stop-color:#ABC937"/>
</linearGradient>
<circle class="st0" cx="12.5" cy="12.5" r="12.5"/>
<path class="st1" d="M15.1,4.9L15.1,4.9l1.1,0.7l0,0l-1.5,2.1c0.7,0.2,1.2,0.5,1.2,0.5s-1.2,2.1-3.2,2.1S9.1,8.4,9.1,8.4
	s0.5-0.3,1.3-0.6L8.8,5.9l0,0l1-0.8l0,0l2.1,2.4c0.2,0,0.4,0,0.5,0c0.3,0,0.5,0,0.8,0.1L15.1,4.9z M15.4,10.6
	c0.5-0.4,1.4-1.4,1.4-1.4s2.1,1.7,2.1,5.2S15.3,20,15.3,20s-1.7-1.8-2.2-4c-0.4-2.2,0.6-4.7,0.6-4.7S14.9,10.8,15.4,10.6L15.4,10.6z
	 M9.6,10.6c-0.5-0.4-1.4-1.4-1.4-1.4s-2.1,1.7-2.1,5.2S9.7,20,9.7,20s1.7-1.8,2.2-4c0.4-2.2-0.6-4.7-0.6-4.7S10.1,10.8,9.6,10.6
	L9.6,10.6z"/>
</svg>
