<?xml version="1.0" encoding="utf-8"?>
<!-- Generator: Adobe Illustrator 23.0.1, SVG Export Plug-In . SVG Version: 6.00 Build 0)  -->
<svg version="1.1" id="Layer_1" xmlns="http://www.w3.org/2000/svg" xmlns:xlink="http://www.w3.org/1999/xlink" x="0px" y="0px"
	 viewBox="0 0 25 25" style="enable-background:new 0 0 25 25;" xml:space="preserve">
<style type="text/css">
	.st0{fill:url(#SVGID_1_);}
	.st1{fill-rule:evenodd;clip-rule:evenodd;fill:#FFFFFF;}
</style>
<linearGradient id="SVGID_1_" gradientUnits="userSpaceOnUse" x1="12.5" y1="25" x2="12.5" y2="0" gradientTransform="matrix(1 0 0 -1 0 25)">
	<stop  offset="0" style="stop-color:#8FA8DD"/>
	<stop  offset="1" style="stop-color:#A7C0EF"/>
</linearGradient>
<circle class="st0" cx="12.5" cy="12.5" r="12.5"/>
<path class="st1" d="M9.7,19c2.2,0,4.1-1.2,4.9-3c0,0-3.1,0.8-3,0.5c0-0.1,2-0.8,3.4-1.6c0.8-0.5,1.2-1.5,1.2-1.5s-1.4,0.7-2,0.8
	c-1.4,0.3-2.6,0.3-2.6,0.3c0-0.1,2-0.5,4.8-2.2c1.3-0.8,1.7-2.2,1.7-2.2s-1.4,0.9-2.3,1.1c-2.1,0.7-4,0.9-4,0.8
	c0-0.2,1.7-0.7,3.4-1.5c0.9-0.4,1.7-1,2.6-1.7C19.3,7.9,19.5,6,19.5,6S18,7,17.3,7.3c-3,1.3-5.6,2-7.6,2.2c-2.9,0.2-5.2,2.2-5.2,4.8
	C4.5,16.9,6.8,19,9.7,19z"/>
</svg>
