<?xml version="1.0" encoding="utf-8"?>
<!-- Generator: Adobe Illustrator 23.0.1, SVG Export Plug-In . SVG Version: 6.00 Build 0)  -->
<svg version="1.1" id="Layer_1" xmlns="http://www.w3.org/2000/svg" xmlns:xlink="http://www.w3.org/1999/xlink" x="0px" y="0px"
	 viewBox="0 0 25 25" style="enable-background:new 0 0 25 25;" xml:space="preserve">
<style type="text/css">
	.st0{fill:url(#SVGID_1_);}
	.st1{fill-rule:evenodd;clip-rule:evenodd;fill:#FFFFFF;}
</style>
<linearGradient id="SVGID_1_" gradientUnits="userSpaceOnUse" x1="12.5" y1="0" x2="12.5" y2="25">
	<stop  offset="0" style="stop-color:#60B953"/>
	<stop  offset="1" style="stop-color:#59C37C"/>
</linearGradient>
<circle class="st0" cx="12.5" cy="12.5" r="12.5"/>
<path class="st1" d="M7.8,18.1C7.7,18,7.7,18,7.6,17.9c-2.8-2.8-2.8-7.2,0-10C10.4,5.2,19.2,5,19.2,5s1.2,10.2-1.6,12.9
	c-2.4,2.4-6.3,2.7-9,0.8l2.2-2.7l3.5-0.8L11.5,15l1.8-1.9l2.1-0.5l-1.7-0.5l1.7-3l-2.4,2.6l-0.9-1.3l0.3,2.1l-1.6,1.8l-0.8-2.3v3.1
	L7.8,18.1z"/>
</svg>
