<?xml version="1.0" encoding="utf-8"?>
<!-- Generator: Adobe Illustrator 23.0.1, SVG Export Plug-In . SVG Version: 6.00 Build 0)  -->
<svg version="1.1" id="Layer_1" xmlns="http://www.w3.org/2000/svg" xmlns:xlink="http://www.w3.org/1999/xlink" x="0px" y="0px"
	 viewBox="0 0 25 25" style="enable-background:new 0 0 25 25;" xml:space="preserve">
<style type="text/css">
	.st0{fill:url(#SVGID_1_);}
	.st1{fill-rule:evenodd;clip-rule:evenodd;fill:#FFFFFF;}
</style>
<linearGradient id="SVGID_1_" gradientUnits="userSpaceOnUse" x1="12.5" y1="0" x2="12.5" y2="25">
	<stop  offset="0" style="stop-color:#D97644"/>
	<stop  offset="1" style="stop-color:#D49969"/>
</linearGradient>
<circle class="st0" cx="12.5" cy="12.5" r="12.5"/>
<path class="st1" d="M7.8,18C7.8,18,7.8,18,7.8,18l3.8-10.8c0,0,0,0,0,0h4.1c0,0,0,0,0,0L19.5,18c0,0,0,0,0,0H7.9H7.8z M4.5,18
	C4.5,18,4.5,18,4.5,18l2.8-7.6c0,0,0,0,0,0h2.5c0,0,0,0,0,0L7.1,18c0,0,0,0,0,0H4.5z"/>
</svg>
