<?xml version="1.0" encoding="utf-8"?>
<!-- Generator: Adobe Illustrator 23.0.1, SVG Export Plug-In . SVG Version: 6.00 Build 0)  -->
<svg version="1.1" id="Layer_1" xmlns="http://www.w3.org/2000/svg" xmlns:xlink="http://www.w3.org/1999/xlink" x="0px" y="0px"
	 viewBox="0 0 25 25" style="enable-background:new 0 0 25 25;" xml:space="preserve">
<style type="text/css">
	.st0{fill:url(#SVGID_1_);}
	.st1{fill-rule:evenodd;clip-rule:evenodd;fill:#FFFFFF;}
</style>
<linearGradient id="SVGID_1_" gradientUnits="userSpaceOnUse" x1="12.5" y1="25" x2="12.5" y2="0" gradientTransform="matrix(1 0 0 -1 0 25)">
	<stop  offset="0" style="stop-color:#73CEC0"/>
	<stop  offset="1" style="stop-color:#91DBD6"/>
</linearGradient>
<circle class="st0" cx="12.5" cy="12.5" r="12.5"/>
<g>
	<path class="st1" d="M16.4,6l0,4.2l-3.6,1.7l0-3.9L16.4,6z"/>
	<path class="st1" d="M20,12.5l-3.6,2.1l-3.6-2.1l3.6-1.9L20,12.5z"/>
	<path class="st1" d="M12.2,12.5l-3.6,2.1L5,12.5l3.6-1.9L12.2,12.5z"/>
	<path class="st1" d="M8.6,5.9l3.7,1.8l-0.1,4l-3.5-1.7L8.6,5.9z"/>
	<path class="st1" d="M16.5,19l-3.7-1.8l0.1-4l3.5,1.7L16.5,19z"/>
	<path class="st1" d="M8.7,19.1l0-4.2l3.6-1.7l0,3.9L8.7,19.1z"/>
</g>
</svg>
