<?xml version="1.0" encoding="utf-8"?>
<!-- Generator: Adobe Illustrator 23.0.1, SVG Export Plug-In . SVG Version: 6.00 Build 0)  -->
<svg version="1.1" id="Layer_1" xmlns="http://www.w3.org/2000/svg" xmlns:xlink="http://www.w3.org/1999/xlink" x="0px" y="0px"
	 viewBox="0 0 25 25" style="enable-background:new 0 0 25 25;" xml:space="preserve">
<style type="text/css">
	.st0{fill:url(#SVGID_1_);}
	.st1{fill-rule:evenodd;clip-rule:evenodd;fill:#FFFFFF;}
</style>
<linearGradient id="SVGID_1_" gradientUnits="userSpaceOnUse" x1="12.5" y1="25" x2="12.5" y2="0" gradientTransform="matrix(1 0 0 -1 0 25)">
	<stop  offset="0" style="stop-color:#A566C7"/>
	<stop  offset="1" style="stop-color:#C860D5"/>
</linearGradient>
<circle class="st0" cx="12.5" cy="12.5" r="12.5"/>
<path class="st1" d="M17.5,16.5c1.5-1.2,2.5-3,2.5-4.9C20,8,16.6,5,12.5,5S5,8,5,11.6c0,1.9,0.9,3.6,2.3,4.8c-0.1,0.3-0.1,0.6-0.1,1
	c0,1.5,0.9,2.6,2,2.6c0.7,0,1.3-0.5,1.7-1.3c0.3,0.8,1,1.3,1.7,1.3c0.6,0,1.2-0.4,1.6-1.1c0.4,0.6,0.9,1.1,1.6,1.1
	c1.1,0,2-1.2,2-2.6C17.6,17.1,17.6,16.8,17.5,16.5z M16.8,11.8c0,1.9-2,3.4-4.4,3.4c-2.5,0-4.4-1.5-4.4-3.4s2-3.4,4.4-3.4
	C14.9,8.4,16.8,9.9,16.8,11.8z"/>
</svg>
