<?xml version="1.0" encoding="utf-8"?>
<!-- Generator: Adobe Illustrator 23.0.1, SVG Export Plug-In . SVG Version: 6.00 Build 0)  -->
<svg version="1.1" id="Layer_1" xmlns="http://www.w3.org/2000/svg" xmlns:xlink="http://www.w3.org/1999/xlink" x="0px" y="0px"
	 viewBox="0 0 25 25" style="enable-background:new 0 0 25 25;" xml:space="preserve">
<style type="text/css">
	.st0{fill:url(#SVGID_1_);}
	.st1{fill-rule:evenodd;clip-rule:evenodd;fill:#FFFFFF;}
</style>
<linearGradient id="SVGID_1_" gradientUnits="userSpaceOnUse" x1="12.5" y1="25" x2="12.5" y2="0" gradientTransform="matrix(1 0 0 -1 0 25)">
	<stop  offset="0" style="stop-color:#F86D74"/>
	<stop  offset="1" style="stop-color:#FEA399"/>
</linearGradient>
<circle class="st0" cx="12.5" cy="12.5" r="12.5"/>
<path class="st1" d="M18.4,17.5c0,0-1.9,1.5-5.7,0.9c-2.9-0.5-4.4-3.6-4.4-5.3c0-4,3-4.9,5-4.9c2,0,3.3,2,3.3,3.5s-1.1,2.8-2.7,2.8
	c-1.7,0-2.2-1.2-2.2-2.2c0-1.1,0.9-1.5,1.7-1.5c0.8,0,1.1,0.7,1.1,1.3c0,0.6-0.5,0.8-0.8,0.8c-0.4,0-0.4-0.2-0.6-0.4
	c-0.1-0.2,0.2-1-0.4-1c-0.5,0-0.6,0.9-0.6,0.9s0.2,1.7,1.8,1.7c1.6,0,2.4-1.3,2.2-2.5c-0.2-1.2-1.4-2.6-3.5-2.3s-3,2.4-2.6,4.7
	c0.4,2.3,3.1,3.6,5.3,3.1c2.1-0.5,4.3-2,4.3-6C19.5,7,16.1,4.7,12,5c-4.1,0.4-6.6,4-6.4,8.2c0.2,4.3,4.2,6.6,7.7,6.7
	c3.4,0.1,5.5-1.9,5.5-1.9s0.5-0.4,0.3-0.8C18.8,17,18.4,17.5,18.4,17.5z"/>
</svg>
