<?xml version="1.0" encoding="utf-8"?>
<!-- Generator: Adobe Illustrator 23.0.1, SVG Export Plug-In . SVG Version: 6.00 Build 0)  -->
<svg version="1.1" id="Layer_1" xmlns="http://www.w3.org/2000/svg" xmlns:xlink="http://www.w3.org/1999/xlink" x="0px" y="0px"
	 viewBox="0 0 25 25" style="enable-background:new 0 0 25 25;" xml:space="preserve">
<style type="text/css">
	.st0{fill:url(#SVGID_1_);}
	.st1{fill-rule:evenodd;clip-rule:evenodd;fill:#FFFFFF;}
</style>
<linearGradient id="SVGID_1_" gradientUnits="userSpaceOnUse" x1="12.5" y1="25" x2="12.5" y2="0" gradientTransform="matrix(1 0 0 -1 0 25)">
	<stop  offset="0" style="stop-color:#53879C"/>
	<stop  offset="1" style="stop-color:#56AAAC"/>
</linearGradient>
<circle class="st0" cx="12.5" cy="12.5" r="12.5"/>
<path class="st1" d="M5,12.5C5,12.5,5,12.5,5,12.5l3.8-6.5c0,0,0,0,0,0h7.5c0,0,0,0,0,0l3.7,6.4c0,0,0,0,0,0l-3.7,6.4c0,0,0,0,0,0
	H8.8c0,0,0,0,0,0L5,12.5z M16,12.5c0,1.9-1.6,3.5-3.5,3.5S9,14.4,9,12.5C9,10.6,10.6,9,12.5,9S16,10.6,16,12.5z"/>
</svg>
